<mxfile host="app.diagrams.net" modified="2022-05-28T23:08:07.176Z" agent="5.0 (Macintosh; Intel Mac OS X 10_15_7) AppleWebKit/605.1.15 (KHTML, like Gecko) Version/15.3 Safari/605.1.15" etag="ajzjNun--VQ87QTTDnfu" version="18.1.3" type="github">
  <diagram id="C5PbUCTnn3D87O1RsAEE" name="ãƒšãƒ¼ã‚¸1">
    <mxGraphModel dx="475" dy="575" grid="1" gridSize="10" guides="1" tooltips="1" connect="1" arrows="1" fold="1" page="1" pageScale="1" pageWidth="827" pageHeight="1169" math="0" shadow="0">
      <root>
        <mxCell id="0" />
        <mxCell id="1" parent="0" />
        <mxCell id="3hnPm9w-DP5dnhe4Bh8V-2" value="" style="rounded=1;whiteSpace=wrap;html=1;" parent="1" vertex="1">
          <mxGeometry x="200" y="80" width="280" height="560" as="geometry" />
        </mxCell>
        <mxCell id="hK5on6jW9pmyeL_oHU42-10" value="" style="rounded=1;whiteSpace=wrap;html=1;shadow=0;fontSize=12;" vertex="1" parent="1">
          <mxGeometry x="220" y="100" width="240" height="520" as="geometry" />
        </mxCell>
        <mxCell id="3hnPm9w-DP5dnhe4Bh8V-4" value="ãƒ­ã‚´" style="rounded=0;whiteSpace=wrap;html=1;fontSize=18;" parent="1" vertex="1">
          <mxGeometry x="380" y="195" width="50" height="50" as="geometry" />
        </mxCell>
        <mxCell id="hK5on6jW9pmyeL_oHU42-1" value="í ½í±¤ ã€€" style="rounded=1;whiteSpace=wrap;html=1;align=left;shadow=1;" vertex="1" parent="1">
          <mxGeometry x="240" y="300" width="200" height="20" as="geometry" />
        </mxCell>
        <mxCell id="hK5on6jW9pmyeL_oHU42-2" value="í ½í´’" style="rounded=1;whiteSpace=wrap;html=1;align=left;shadow=1;" vertex="1" parent="1">
          <mxGeometry x="240" y="330" width="200" height="20" as="geometry" />
        </mxCell>
        <mxCell id="hK5on6jW9pmyeL_oHU42-3" value="Login" style="rounded=1;whiteSpace=wrap;html=1;shadow=1;" vertex="1" parent="1">
          <mxGeometry x="250" y="380" width="180" height="20" as="geometry" />
        </mxCell>
        <mxCell id="hK5on6jW9pmyeL_oHU42-5" value="&lt;font style=&quot;font-size: 20px;&quot;&gt;TwitterSample&lt;/font&gt;" style="text;html=1;strokeColor=none;fillColor=none;align=center;verticalAlign=middle;whiteSpace=wrap;rounded=0;shadow=1;" vertex="1" parent="1">
          <mxGeometry x="240" y="197.5" width="150" height="45" as="geometry" />
        </mxCell>
        <mxCell id="hK5on6jW9pmyeL_oHU42-6" value="&lt;font style=&quot;font-size: 12px;&quot;&gt;Signup&lt;/font&gt;" style="rounded=1;whiteSpace=wrap;html=1;shadow=1;fontSize=20;" vertex="1" parent="1">
          <mxGeometry x="360" y="510" width="90" height="20" as="geometry" />
        </mxCell>
        <mxCell id="hK5on6jW9pmyeL_oHU42-11" style="edgeStyle=orthogonalEdgeStyle;rounded=0;orthogonalLoop=1;jettySize=auto;html=1;exitX=0.5;exitY=1;exitDx=0;exitDy=0;fontFamily=Helvetica;fontSize=12;fontColor=default;" edge="1" parent="1" source="hK5on6jW9pmyeL_oHU42-6" target="hK5on6jW9pmyeL_oHU42-6">
          <mxGeometry relative="1" as="geometry" />
        </mxCell>
      </root>
    </mxGraphModel>
  </diagram>
</mxfile>
